<svg width="24" height="24" viewBox="0 0 24 24" fill="none" xmlns="http://www.w3.org/2000/svg">
<path fill-rule="evenodd" clip-rule="evenodd" d="M3.51283 8.28849C4.16898 8.06977 5.18974 7.875 6.75 7.875C8.31026 7.875 9.33102 8.06977 9.98717 8.28849C10.316 8.3981 10.5539 8.51397 10.7218 8.61469C10.8057 8.66502 10.8717 8.71132 10.9224 8.75076C10.9477 8.77046 10.9692 8.7884 10.9871 8.8042C10.996 8.8121 11.0041 8.81945 11.0113 8.82621C11.0149 8.82959 11.0182 8.83283 11.0214 8.83591C11.023 8.83744 11.0245 8.83895 11.026 8.84041L11.0282 8.84257L11.0293 8.84363C11.0294 8.84371 11.0295 8.8438 11.0273 8.84612C11.3281 8.70192 11.6601 8.625 12 8.625C12.3399 8.625 12.6719 8.70192 12.9727 8.84612C12.9705 8.8438 12.9706 8.84371 12.9707 8.84363L12.9718 8.84257L12.974 8.84041C12.9755 8.83895 12.977 8.83744 12.9786 8.83591C12.9818 8.83283 12.9851 8.82959 12.9887 8.82621C12.9959 8.81945 13.004 8.8121 13.0129 8.8042C13.0308 8.7884 13.0523 8.77046 13.0776 8.75076C13.1283 8.71132 13.1943 8.66502 13.2782 8.61469C13.4461 8.51397 13.684 8.3981 14.0128 8.28849C14.669 8.06977 15.6897 7.875 17.25 7.875C18.8103 7.875 19.831 8.06977 20.4872 8.28849C20.816 8.3981 21.0539 8.51397 21.2218 8.61469C21.2276 8.61815 21.2332 8.62158 21.2388 8.625H21.75C22.1642 8.625 22.5 8.96079 22.5 9.375C22.5 9.78921 22.1642 10.125 21.75 10.125H21.7426C21.7031 11.9939 21.4971 13.4418 20.8931 14.4484C20.1363 15.7097 18.8746 16.125 17.25 16.125C15.6254 16.125 14.3637 15.7097 13.6069 14.4484C13.1176 13.6328 12.8894 12.5276 12.7995 11.1434C12.7675 11.0601 12.75 10.9696 12.75 10.875C12.75 10.6761 12.671 10.4853 12.5303 10.3447C12.3897 10.204 12.1989 10.125 12 10.125C11.8011 10.125 11.6103 10.204 11.4697 10.3447C11.329 10.4853 11.25 10.6761 11.25 10.875C11.25 10.9696 11.2325 11.0601 11.2005 11.1434C11.1106 12.5276 10.8824 13.6328 10.3931 14.4484C9.63634 15.7097 8.37462 16.125 6.75 16.125C5.12538 16.125 3.86366 15.7097 3.10688 14.4484C2.50294 13.4418 2.29685 11.9939 2.25743 10.125H2.25C1.83579 10.125 1.5 9.78921 1.5 9.375C1.5 8.96079 1.83579 8.625 2.25 8.625H2.76117C2.76676 8.62158 2.77243 8.61815 2.77819 8.61469C2.94607 8.51397 3.18401 8.3981 3.51283 8.28849ZM3.7525 9.79991C3.77678 11.8047 3.97901 12.9864 4.39312 13.6766C4.76134 14.2903 5.37462 14.625 6.75 14.625C8.12538 14.625 8.73866 14.2903 9.10688 13.6766C9.521 12.9864 9.72322 11.8047 9.7475 9.79991C9.68348 9.7725 9.6058 9.7425 9.51283 9.71151C9.04398 9.55523 8.18974 9.375 6.75 9.375C5.31026 9.375 4.45602 9.55523 3.98717 9.71151C3.8942 9.7425 3.81652 9.7725 3.7525 9.79991ZM14.2525 9.79991C14.2768 11.8047 14.479 12.9864 14.8931 13.6766C15.2613 14.2903 15.8746 14.625 17.25 14.625C18.6254 14.625 19.2387 14.2903 19.6069 13.6766C20.021 12.9864 20.2232 11.8047 20.2475 9.79991C20.1835 9.7725 20.1058 9.7425 20.0128 9.71151C19.544 9.55523 18.6897 9.375 17.25 9.375C15.8103 9.375 14.956 9.55523 14.4872 9.71151C14.3942 9.7425 14.3165 9.7725 14.2525 9.79991Z" fill="#333333"/>
</svg>
