<svg width="26" height="26" viewBox="0 0 26 26" fill="none" xmlns="http://www.w3.org/2000/svg">
<path fill-rule="evenodd" clip-rule="evenodd" d="M14 4.18182C8.57757 4.18182 4.18182 8.57757 4.18182 14C4.18182 19.4224 8.57757 23.8182 14 23.8182C19.4224 23.8182 23.8182 19.4224 23.8182 14C23.8182 8.57757 19.4224 4.18182 14 4.18182ZM2 14C2 7.37258 7.37258 2 14 2C20.6274 2 26 7.37258 26 14C26 20.6274 20.6274 26 14 26C7.37258 26 2 20.6274 2 14Z" fill="black"/>
<path fill-rule="evenodd" clip-rule="evenodd" d="M13.372 6.93698C16.8802 6.63953 18.7145 8.75694 19.3433 10.0383C19.6087 10.5792 19.3854 11.2328 18.8445 11.4983C18.3037 11.7637 17.65 11.5404 17.3846 10.9995C17.0338 10.2845 15.9281 8.90998 13.5565 9.11098M13.372 6.93698L13.3718 6.937L13.372 6.93698ZM13.3718 6.937C9.7347 7.24605 7.19649 10.6088 7.4761 14.5875L13.3718 6.937ZM7.4761 14.5876C7.76219 18.6588 10.9383 21.0909 13.954 21.0909C15.7401 21.0909 17.0781 20.3589 17.9505 19.6482C18.3858 19.2936 18.7123 18.9392 18.9326 18.67C19.0432 18.5349 19.1283 18.4196 19.1882 18.3343C19.2181 18.2915 19.2419 18.2561 19.2595 18.2293C19.2682 18.2159 19.2755 18.2046 19.2812 18.1956L19.2886 18.1838L19.2914 18.1792L19.2927 18.1773L19.2932 18.1764C19.2935 18.176 19.2937 18.1755 18.364 17.6049L19.2937 18.1755C19.6089 17.6621 19.4481 16.9903 18.9346 16.6751C18.4231 16.3612 17.7545 16.5195 17.4378 17.0284L17.434 17.0343C17.4286 17.0425 17.4179 17.0586 17.402 17.0814C17.3699 17.127 17.3173 17.1988 17.2441 17.2882C17.0968 17.4682 16.8722 17.7125 16.5724 17.9567C15.9748 18.4435 15.1079 18.9091 13.954 18.9091C12.0704 18.9091 9.85738 17.3495 9.65255 14.4346L9.65255 14.4346C9.44127 11.4283 11.3135 9.30169 13.5563 9.111" fill="black"/>
</svg>
