<svg width="24" height="24" viewBox="0 0 24 24" fill="none" xmlns="http://www.w3.org/2000/svg">
<path d="M8.3966 11.235C8.59167 11.196 8.76326 11.0812 8.87362 10.9157C8.98399 10.7502 9.02409 10.5476 8.9851 10.3525C8.94611 10.1575 8.83123 9.98588 8.66573 9.87552C8.50023 9.76515 8.29767 9.72505 8.1026 9.76404C7.1996 9.94404 6.5176 10.576 6.1546 11.423C5.7946 12.261 5.7416 13.309 6.0226 14.431C6.04454 14.5286 6.08576 14.6207 6.14382 14.7021C6.20188 14.7834 6.27562 14.8523 6.3607 14.9048C6.44578 14.9573 6.54049 14.9922 6.63926 15.0075C6.73803 15.0228 6.83887 15.0183 6.93585 14.9941C7.03283 14.9699 7.124 14.9265 7.20399 14.8666C7.28398 14.8067 7.35119 14.7314 7.40166 14.6451C7.45214 14.5588 7.48485 14.4633 7.49789 14.3642C7.51093 14.2651 7.50403 14.1644 7.4776 14.068C7.2576 13.19 7.3296 12.488 7.5326 12.014C7.7326 11.548 8.0506 11.305 8.3966 11.235ZM5.4706 3.41904C5.42793 4.12901 5.53189 4.84016 5.77602 5.5082C6.02015 6.17625 6.39921 6.78687 6.8896 7.30204C5.93696 7.57518 5.08406 8.11891 4.43439 8.86728C3.78472 9.61565 3.36619 10.5365 3.2296 11.518C2.90045 13.8732 3.38367 16.2703 4.5996 18.314L4.9496 18.904C4.96287 18.9257 4.97722 18.9468 4.9926 18.967L6.4086 20.873C6.70852 21.277 7.09288 21.6107 7.53492 21.851C7.97697 22.0913 8.46607 22.2323 8.96818 22.2643C9.47029 22.2963 9.97334 22.2184 10.4423 22.0362C10.9113 21.854 11.3349 21.5717 11.6836 21.209C11.7244 21.1666 11.7733 21.1329 11.8274 21.1099C11.8815 21.0868 11.9398 21.0749 11.9986 21.0749C12.0574 21.0749 12.1157 21.0868 12.1698 21.1099C12.2239 21.1329 12.2728 21.1666 12.3136 21.209C12.6623 21.5717 13.0859 21.854 13.5549 22.0362C14.0239 22.2184 14.5269 22.2963 15.029 22.2643C15.5311 22.2323 16.0202 22.0913 16.4623 21.851C16.9043 21.6107 17.2887 21.277 17.5886 20.873L19.0046 18.966C19.0197 18.9458 19.0337 18.9247 19.0466 18.903L19.3976 18.313C20.6143 16.27 21.0986 13.8733 20.7706 11.518C20.6738 10.8241 20.4355 10.1573 20.0706 9.55913C19.7057 8.96094 19.2219 8.44402 18.6492 8.04037C18.0764 7.63672 17.4269 7.35493 16.7408 7.21245C16.0547 7.06997 15.3467 7.06983 14.6606 7.21204L12.7596 7.60604H12.7566C12.7866 6.82604 12.9086 5.98604 13.1476 5.26804C13.4376 4.40004 13.8396 3.87804 14.2876 3.69204C14.4713 3.61539 14.617 3.46892 14.6926 3.28486C14.7683 3.10079 14.7677 2.8942 14.6911 2.71054C14.6145 2.52688 14.468 2.38118 14.2839 2.30551C14.0999 2.22984 13.8933 2.23039 13.7096 2.30704C12.6576 2.74604 12.0596 3.78704 11.7246 4.79304L11.6786 4.93504C11.4323 4.45919 11.1143 4.02409 10.7356 3.64504C10.217 3.12583 9.59398 2.72272 8.90784 2.46241C8.22171 2.20209 7.4881 2.0905 6.7556 2.13504C6.42131 2.15428 6.10571 2.29554 5.86867 2.53204C5.63162 2.76853 5.48962 3.0838 5.4696 3.41804L5.4706 3.41904ZM6.9636 3.62604C7.46541 3.61155 7.96487 3.6999 8.43127 3.88563C8.89766 4.07136 9.32112 4.35056 9.6756 4.70604C10.0311 5.06051 10.3103 5.48398 10.496 5.95037C10.6817 6.41677 10.7701 6.91623 10.7556 7.41804C10.5742 7.42296 10.3927 7.4146 10.2126 7.39304L9.5956 7.26504C9.00915 7.09008 8.47568 6.77144 8.0436 6.33804C7.68812 5.98356 7.40892 5.5601 7.22319 5.0937C7.03746 4.62731 6.94912 4.12785 6.9636 3.62604ZM9.0326 8.68004L9.2346 8.72204C9.4746 8.79004 9.7186 8.84104 9.9646 8.87404L10.9346 9.07404C11.6371 9.21958 12.3621 9.21958 13.0646 9.07404L14.9666 8.68004C15.4518 8.57949 15.9524 8.5796 16.4375 8.68037C16.9226 8.78113 17.3819 8.98041 17.7868 9.26586C18.1918 9.55131 18.5339 9.91685 18.7918 10.3399C19.0498 10.7629 19.2182 11.2343 19.2866 11.725C19.5674 13.7428 19.1523 15.7959 18.1096 17.546L17.7786 18.103L16.3856 19.979C16.2156 20.208 15.9977 20.3972 15.7471 20.5334C15.4966 20.6696 15.2193 20.7495 14.9347 20.7676C14.65 20.7857 14.3649 20.7415 14.0991 20.6381C13.8333 20.5348 13.5932 20.3747 13.3956 20.169C13.2149 19.981 12.9982 19.8314 12.7583 19.7293C12.5184 19.6271 12.2603 19.5744 11.9996 19.5744C11.7389 19.5744 11.4808 19.6271 11.2409 19.7293C11.001 19.8314 10.7843 19.981 10.6036 20.169C10.406 20.3747 10.1659 20.5348 9.9001 20.6381C9.6343 20.7415 9.34915 20.7857 9.06453 20.7676C8.7799 20.7495 8.50264 20.6696 8.25206 20.5334C8.00148 20.3972 7.7836 20.208 7.6136 19.979L6.2206 18.103L5.8896 17.546C4.84728 15.7958 4.43249 13.7426 4.7136 11.725C4.782 11.2344 4.95037 10.7631 5.20828 10.3401C5.4662 9.91722 5.80816 9.55173 6.21302 9.26629C6.61788 8.98085 7.07701 8.78155 7.562 8.68071C8.04699 8.57987 8.54752 8.57964 9.0326 8.68004Z" fill="#333333"/>
</svg>
