<svg width="24" height="24" viewBox="0 0 24 24" fill="none" xmlns="http://www.w3.org/2000/svg">
<path d="M19.5 5.25001L19.275 5.025C18 3.60001 16.125 3.15001 16.125 3.15001C13.875 2.47501 10.35 3.97501 7.2015 7.0485C4.5765 9.525 3 12.525 3 14.775C3 15.0773 3.0765 15.3758 3.0765 15.675C3.22575 17.175 4.2015 18.7508 5.02425 19.5008C6.0765 20.5493 7.42425 21.0773 8.92425 21.0773C11.3993 21.0773 14.3265 19.65 17.0243 17.1015C21.2257 12.975 22.275 8.1 19.5 5.25001ZM7.5 16.275C7.5 15.2985 8.5485 13.275 10.7985 11.025C12.9757 8.85 15.2257 8.25 16.2743 8.025C15.75 9.4515 14.625 11.1735 12.9757 12.8265C11.3993 14.3265 9.60075 15.5243 8.02425 16.125C7.875 16.2015 7.64925 16.2015 7.5 16.275ZM8.25 8.10001C10.725 5.62501 13.35 4.4235 15 4.4235C15.525 4.4235 15.975 4.57651 16.275 4.87501C16.5765 5.17351 16.725 5.77501 16.65 6.45151C15.75 6.52426 12.6735 7.0485 9.75 9.97575C7.875 11.8508 5.9235 14.5485 6.0765 16.4235C5.625 16.4235 5.1735 16.2743 4.9515 16.0485C4.76611 15.8634 4.63621 15.6301 4.5765 15.375C4.5765 15.375 4.5 15 4.5 14.775C4.5765 12.9 6 10.275 8.25 8.10001ZM15.975 15.975C12.375 19.5765 8.25 20.5485 6.0765 18.4515C5.9074 18.2923 5.75602 18.1153 5.625 17.9235C5.775 18 6 18 6.225 18C6.9 18 7.725 17.85 8.5485 17.5485C10.3507 16.875 12.2985 15.6008 14.0243 13.875C16.6493 11.25 18.1493 8.25001 18.1493 6.07651L18.2257 6.14926L18.4508 6.29926C20.5485 8.47576 19.5 12.5243 15.9757 15.9758L15.975 15.975Z" fill="#333333"/>
</svg>
