<svg width="24" height="24" viewBox="0 0 24 24" fill="none" xmlns="http://www.w3.org/2000/svg">
<path fill-rule="evenodd" clip-rule="evenodd" d="M7.71031 2.70413C8.83259 2.23926 10.0355 2 11.2502 2C12.465 2 13.6678 2.23926 14.7901 2.70413C15.9124 3.169 16.9321 3.85036 17.7911 4.70932C18.65 5.56828 19.3314 6.58802 19.7963 7.71031C20.2612 8.83259 20.5004 10.0355 20.5004 11.2502C20.5004 12.465 20.2611 13.6678 19.7963 14.7901C19.4918 15.5253 19.0944 16.2164 18.615 16.8472L22.1341 20.3663C22.6222 20.8545 22.6222 21.6459 22.1341 22.1341C21.6459 22.6222 20.8545 22.6222 20.3663 22.1341L16.8472 18.615C15.2469 19.8313 13.283 20.5004 11.2502 20.5004C8.7969 20.5004 6.44407 19.5258 4.70932 17.7911C2.97457 16.0563 2 13.7035 2 11.2502C2 8.7969 2.97457 6.44407 4.70932 4.70932C5.56828 3.85036 6.58802 3.169 7.71031 2.70413ZM11.2502 4.5C10.3638 4.5 9.48599 4.6746 8.66701 5.01383C7.84804 5.35306 7.1039 5.85028 6.47709 6.47709C5.21118 7.743 4.5 9.45994 4.5 11.2502C4.5 13.0405 5.21118 14.7574 6.47709 16.0233C7.743 17.2892 9.45994 18.0004 11.2502 18.0004C13.0405 18.0004 14.7574 17.2892 16.0233 16.0233C16.6501 15.3965 17.1474 14.6524 17.4866 13.8334C17.8258 13.0144 18.0004 12.1367 18.0004 11.2502C18.0004 10.3638 17.8258 9.48599 17.4866 8.66701C17.1474 7.84804 16.6501 7.10391 16.0233 6.47709C15.3965 5.85028 14.6524 5.35306 13.8334 5.01383C13.0144 4.6746 12.1367 4.5 11.2502 4.5Z" fill="black"/>
</svg>
