<svg width="110" height="109" viewBox="0 0 110 109" fill="none" xmlns="http://www.w3.org/2000/svg">
<g clip-path="url(#clip0_379_753)">
<mask id="mask0_379_753" style="mask-type:luminance" maskUnits="userSpaceOnUse" x="0" y="0" width="110" height="110">
<path d="M109.459 39.2386L39.6953 0.0849609L0.541715 69.8488L70.3056 109.002L109.459 39.2386Z" fill="white"/>
</mask>
<g mask="url(#mask0_379_753)">
<path fill-rule="evenodd" clip-rule="evenodd" d="M82.0576 32.2586C81.9917 27.2009 79.3051 22.3152 74.5772 19.6618C69.8492 17.0082 64.2794 17.2602 59.928 19.8387L82.0576 32.2586ZM75.7704 47.4652C79.7297 40.4105 77.2204 31.4819 70.1656 27.5225C63.1109 23.5632 54.1823 26.0725 50.2229 33.1272L75.7704 47.4652ZM34.2306 61.6222C30.2712 68.6771 32.7806 77.6057 39.8353 81.565C46.8901 85.5244 55.8187 83.0151 59.7781 75.9602L34.2306 61.6222ZM82.0217 69.7089C78.0623 76.7637 69.1338 79.273 62.0789 75.3136L76.4169 49.7662C83.4718 53.7256 85.981 62.6542 82.0217 69.7089ZM47.9218 33.7739C40.8672 29.8146 31.9385 32.3239 27.9792 39.3786C24.0198 46.4334 26.5292 55.362 33.5839 59.3213L47.9218 33.7739ZM47.8314 67.3174C54.8863 71.2769 63.8148 68.7676 67.7742 61.7127C71.7335 54.658 69.2243 45.7294 62.1694 41.77C55.1147 37.8107 46.1861 40.32 42.2268 47.3747C38.2674 54.4296 40.7767 63.3581 47.8314 67.3174ZM89.8763 74.1313C87.2229 78.8592 82.3374 81.5455 77.2797 81.6113L89.6994 59.4819C92.278 63.8334 92.5299 69.4031 89.8763 74.1313ZM32.7093 27.4972C27.6517 27.563 22.7661 30.2494 20.1126 34.9774C17.459 39.7056 17.7111 45.2752 20.2895 49.6267L32.7093 27.4972ZM35.4345 89.4317C30.7062 86.778 28.0198 81.8926 27.954 76.8348L50.0835 89.2546C45.7319 91.8331 40.1624 92.0851 35.4345 89.4317ZM77.2441 48.2923L90.0179 55.4613C93.9772 48.4066 91.468 39.478 84.4131 35.5186L77.2441 48.2923ZM54.0828 89.5611L61.2518 76.7874L74.0256 83.9564C70.0662 91.0112 61.1377 93.5205 54.0828 89.5611ZM32.7567 60.795L19.9831 53.6261C16.0237 60.681 18.533 69.6095 25.5877 73.5688L32.7567 60.795ZM55.918 19.5263L48.749 32.3L35.9754 25.131C39.9347 18.0763 48.8633 15.567 55.918 19.5263Z" fill="url(#paint0_linear_379_753)"/>
</g>
</g>
<defs>
<linearGradient id="paint0_linear_379_753" x1="45.5682" y1="12.0961" x2="57.5079" y2="90.1234" gradientUnits="userSpaceOnUse">
<stop stop-color="#FEB65E"/>
<stop offset="1" stop-color="#FFD6A5"/>
</linearGradient>
<clipPath id="clip0_379_753">
<rect width="80" height="80" fill="white" transform="translate(39.6953) rotate(29.3025)"/>
</clipPath>
</defs>
</svg>
