<svg width="32" height="32" viewBox="0 0 32 32" fill="none" xmlns="http://www.w3.org/2000/svg">
<path d="M15.9939 2.66663C8.62242 2.66663 2.66602 8.63399 2.66602 15.9945C2.66602 21.6437 6.17623 26.4703 11.1344 28.4119C11.0137 27.3588 10.915 25.7353 11.1783 24.5835C11.4196 23.5414 12.7359 17.958 12.7359 17.958C12.7359 17.958 12.3411 17.1572 12.3411 15.9835C12.3411 14.1297 13.416 12.7475 14.7543 12.7475C15.8951 12.7475 16.4436 13.6031 16.4436 14.6233C16.4436 15.7641 15.7196 17.4753 15.3357 19.0659C15.0176 20.3932 16.0048 21.4792 17.3102 21.4792C19.6796 21.4792 21.5005 18.9781 21.5005 15.3802C21.5005 12.1881 19.2079 9.96129 15.928 9.96129C12.1326 9.96129 9.90583 12.8024 9.90583 15.7422C9.90583 16.883 10.3446 18.1116 10.8931 18.7807C11.0028 18.9123 11.0137 19.033 10.9808 19.1646C10.8821 19.5815 10.6517 20.4919 10.6079 20.6784C10.553 20.9197 10.4104 20.9746 10.1581 20.8539C8.51271 20.0641 7.48159 17.6289 7.48159 15.6764C7.48159 11.4751 10.5311 7.61383 16.29 7.61383C20.9082 7.61383 24.5061 10.9047 24.5061 15.3144C24.5061 19.9105 21.6102 23.6073 17.5954 23.6073C16.2461 23.6073 14.9737 22.9052 14.5459 22.0715C14.5459 22.0715 13.8768 24.6164 13.7122 25.2417C13.416 26.4045 12.6043 27.8524 12.0558 28.7409C13.3064 29.1249 14.6227 29.3333 16.0048 29.3333C23.3653 29.3333 29.3327 23.3659 29.3327 16.0055C29.3217 8.63399 23.3543 2.66663 15.9939 2.66663Z" fill="#FEAF50"/>
</svg>
