<svg xmlns="http://www.w3.org/2000/svg" width="16" height="16" viewBox="0 0 23 23" fill="none">
    <g clip-path="url(#clip0_379_3197)">
        <mask id="mask0_379_3197" mask-type="luminance" maskUnits="userSpaceOnUse" x="0" y="-1" width="23" height="24">
            <path d="M10.8587 22.9211L22.9219 12.063L12.0638 -0.000203588L0.000594338 10.8579L10.8587 22.9211Z"
                fill="white" />
        </mask>
        <g mask="url(#mask0_379_3197)">
            <path fill-rule="evenodd" clip-rule="evenodd"
                d="M22.9219 12.063C21.2563 13.5622 18.6907 13.4273 17.1916 11.7617C18.8571 10.2625 21.4227 10.3974 22.9219 12.063ZM16.8903 17.492C18.5559 15.9928 18.6907 13.4273 17.1916 11.7617C18.8571 10.2625 18.992 7.69698 17.4928 6.03139C15.9937 4.36583 13.4281 4.23093 11.7625 5.73012C13.4281 4.23093 13.563 1.66536 12.0638 -0.000203588C10.3982 1.49898 10.2633 4.06455 11.7625 5.73012C10.2633 4.06455 7.69777 3.92965 6.03219 5.42884C4.36663 6.92802 4.23174 9.4936 5.73091 11.1592C4.23174 9.4936 1.66616 9.35871 0.000594338 10.8579C1.49977 12.5234 4.06535 12.6583 5.73091 11.1592C4.06535 12.6583 3.93046 15.2239 5.42964 16.8895C6.92883 18.5551 9.49439 18.6899 11.16 17.1908C9.49439 18.6899 9.35949 21.2555 10.8587 22.9211C12.5242 21.4219 12.6592 18.8563 11.16 17.1908C12.6592 18.8563 15.2247 18.9912 16.8903 17.492ZM5.73091 11.1592C7.23009 12.8247 9.79567 12.9596 11.4612 11.4604C9.96206 9.79487 7.39648 9.65999 5.73091 11.1592ZM11.4612 11.4604C9.79567 12.9596 9.66077 15.5252 11.16 17.1908C9.66077 15.5252 7.0952 15.3903 5.42964 16.8895C7.0952 15.3903 7.23009 12.8247 5.73091 11.1592C7.39648 9.65999 7.53137 7.09441 6.03219 5.42884C7.53137 7.09441 10.0969 7.2293 11.7625 5.73012C10.0969 7.2293 9.96206 9.79487 11.4612 11.4604ZM11.4612 11.4604C13.1268 9.96125 13.2617 7.39568 11.7625 5.73012C13.2617 7.39568 15.8273 7.53058 17.4928 6.03139C15.8273 7.53058 15.6924 10.0961 17.1916 11.7617C15.6924 10.0961 13.1268 9.96125 11.4612 11.4604ZM11.4612 11.4604C12.9604 13.126 12.8255 15.6916 11.16 17.1908C12.8255 15.6916 15.3911 15.8264 16.8903 17.492C15.3911 15.8264 15.526 13.2609 17.1916 11.7617C15.526 13.2609 12.9604 13.126 11.4612 11.4604Z"
                fill="url(#paint0_linear_379_3197)" />
        </g>
    </g>
    <defs>
        <linearGradient id="paint0_linear_379_3197" x1="16.8903" y1="17.492" x2="6.03219" y2="5.42884"
            gradientUnits="userSpaceOnUse">
            <stop offset="0" stop-color="#FEB65E" />
            <stop offset="1" stop-color="#F8FBFE" />
        </linearGradient>
        <clipPath id="clip0_379_3197">
            <rect width="16.2302" height="16.2302" fill="#FEB65E"
                transform="translate(22.9219 12.063) rotate(138.01)" />
        </clipPath>
    </defs>
</svg>