<svg width="24" height="24" viewBox="0 0 24 24" fill="none" xmlns="http://www.w3.org/2000/svg">
<path fill-rule="evenodd" clip-rule="evenodd" d="M7.75 5.618C7.74999 5.31967 7.67371 5.02629 7.52842 4.76574C7.38312 4.50518 7.17362 4.2861 6.91983 4.12929C6.66603 3.97249 6.37636 3.88316 6.07833 3.86981C5.7803 3.85646 5.4838 3.91952 5.217 4.053L3.217 5.053C2.92642 5.19837 2.68206 5.42178 2.51127 5.69818C2.34048 5.97459 2.25001 6.29308 2.25 6.618V10.25H2C1.80109 10.25 1.61032 10.329 1.46967 10.4697C1.32902 10.6103 1.25 10.8011 1.25 11V17C1.25 17.9946 1.64509 18.9484 2.34835 19.6516C3.05161 20.3549 4.00544 20.75 5 20.75C5.99456 20.75 6.94839 20.3549 7.65165 19.6516C8.35491 18.9484 8.75 17.9946 8.75 17V11C8.75 10.8011 8.67098 10.6103 8.53033 10.4697C8.38968 10.329 8.19891 10.25 8 10.25H7.75V5.618ZM2.75 11.75H7.25V17C7.25 17.2955 7.1918 17.5881 7.07873 17.861C6.96566 18.134 6.79992 18.3821 6.59099 18.591C6.38206 18.7999 6.13402 18.9657 5.86104 19.0787C5.58806 19.1918 5.29547 19.25 5 19.25C4.70453 19.25 4.41194 19.1918 4.13896 19.0787C3.86598 18.9657 3.61794 18.7999 3.40901 18.591C3.20008 18.3821 3.03434 18.134 2.92127 17.861C2.8082 17.5881 2.75 17.2955 2.75 17V11.75ZM6.25 10.25V5.618C6.25008 5.57532 6.23924 5.53334 6.21851 5.49604C6.19777 5.45874 6.16784 5.42737 6.13155 5.40491C6.09526 5.38246 6.05383 5.36967 6.0112 5.36776C5.96856 5.36585 5.92615 5.37488 5.888 5.394L3.888 6.394C3.84645 6.41482 3.81153 6.44681 3.78715 6.48638C3.76277 6.52594 3.74991 6.57152 3.75 6.618V10.25H6.25ZM16.5 4.25C14.9072 4.24965 13.3744 4.85745 12.2146 5.94923C11.0548 7.04102 10.3557 8.5344 10.2599 10.1243C10.1642 11.7142 10.6791 13.2807 11.6995 14.5038C12.7198 15.7269 14.1687 16.5142 15.75 16.705V19.25H13.5C13.3011 19.25 13.1103 19.329 12.9697 19.4697C12.829 19.6103 12.75 19.8011 12.75 20C12.75 20.1989 12.829 20.3897 12.9697 20.5303C13.1103 20.671 13.3011 20.75 13.5 20.75H19.5C19.6989 20.75 19.8897 20.671 20.0303 20.5303C20.171 20.3897 20.25 20.1989 20.25 20C20.25 19.8011 20.171 19.6103 20.0303 19.4697C19.8897 19.329 19.6989 19.25 19.5 19.25H17.25V16.705C18.8283 16.5104 20.2731 15.7216 21.2902 14.4992C22.3073 13.2767 22.8203 11.7126 22.7247 10.1252C22.6292 8.53788 21.9322 7.04662 20.7757 5.95508C19.6192 4.86355 18.0902 4.2538 16.5 4.25ZM16.5 15.25C17.1238 15.25 17.7415 15.1271 18.3177 14.8884C18.894 14.6497 19.4177 14.2998 19.8588 13.8588C20.2998 13.4177 20.6497 12.894 20.8884 12.3177C21.1271 11.7414 21.25 11.1238 21.25 10.5C21.25 9.87622 21.1271 9.25855 20.8884 8.68225C20.6497 8.10596 20.2998 7.58232 19.8588 7.14124C19.4177 6.70016 18.894 6.35028 18.3177 6.11157C17.7415 5.87286 17.1238 5.75 16.5 5.75C15.2402 5.75 14.032 6.25044 13.1412 7.14124C12.2504 8.03204 11.75 9.24022 11.75 10.5C11.75 11.7598 12.2504 12.968 13.1412 13.8588C14.032 14.7496 15.2402 15.25 16.5 15.25Z" fill="#333333"/>
</svg>
