<svg width="139" height="185" viewBox="0 0 139 185" fill="none" xmlns="http://www.w3.org/2000/svg">
<g clip-path="url(#clip0_908_208)">
<g clip-path="url(#clip1_908_208)">
<mask id="mask0_908_208" style="mask-type:luminance" maskUnits="userSpaceOnUse" x="89" y="-6" width="283" height="283">
<path d="M89.2637 128.497L223.526 276.732L371.761 142.469L237.498 -5.76534L89.2637 128.497Z" fill="white"/>
</mask>
<g mask="url(#mask0_908_208)">
<path fill-rule="evenodd" clip-rule="evenodd" d="M223.526 276.732C204.989 256.265 206.552 224.646 227.019 206.108C245.557 226.575 243.993 258.194 223.526 276.732ZM156.395 202.615C174.933 223.082 206.552 224.646 227.019 206.108C245.557 226.575 277.177 228.139 297.644 209.601C318.11 191.063 319.675 159.443 301.137 138.976C319.675 159.443 351.294 161.007 371.761 142.469C353.223 122.002 321.604 120.439 301.137 138.976C321.604 120.439 323.168 88.8189 304.63 68.352C286.092 47.8853 254.472 46.3214 234.005 64.859C254.472 46.3214 256.036 14.7014 237.498 -5.76534C217.032 12.7723 215.468 44.3922 234.005 64.859C215.468 44.3922 183.848 42.8284 163.381 61.366C142.914 79.9038 141.35 111.524 159.888 131.99C141.35 111.524 109.731 109.959 89.2637 128.497C107.801 148.964 139.421 150.528 159.888 131.99C139.421 150.528 137.857 182.148 156.395 202.615ZM234.005 64.859C213.539 83.3967 211.975 115.017 230.512 135.483C250.979 116.946 252.543 85.3258 234.005 64.859ZM230.512 135.483C211.975 115.017 180.355 113.452 159.888 131.99C180.355 113.452 181.919 81.8328 163.381 61.366C181.919 81.8328 213.539 83.3967 234.005 64.859C252.543 85.3258 284.163 86.8897 304.63 68.352C284.163 86.8897 282.599 118.509 301.137 138.976C282.599 118.509 250.979 116.946 230.512 135.483ZM230.512 135.483C249.05 155.95 280.67 157.514 301.137 138.976C280.67 157.514 279.106 189.134 297.644 209.601C279.106 189.134 247.486 187.57 227.019 206.108C247.486 187.57 249.05 155.95 230.512 135.483ZM230.512 135.483C210.045 154.021 178.426 152.457 159.888 131.99C178.426 152.457 176.862 184.077 156.395 202.615C176.862 184.077 208.482 185.641 227.019 206.108C208.482 185.641 210.045 154.021 230.512 135.483Z" fill="url(#paint0_linear_908_208)"/>
</g>
</g>
<g clip-path="url(#clip2_908_208)">
<mask id="mask1_908_208" style="mask-type:luminance" maskUnits="userSpaceOnUse" x="-45" y="-155" width="283" height="284">
<path d="M-44.999 -19.7374L89.2637 128.497L237.498 -5.76535L103.236 -154L-44.999 -19.7374Z" fill="white"/>
</mask>
<g mask="url(#mask1_908_208)">
<path fill-rule="evenodd" clip-rule="evenodd" d="M89.2637 128.497C70.7259 108.03 72.2897 76.4108 92.7567 57.873C111.294 78.3399 109.731 109.959 89.2637 128.497ZM22.1323 54.38C40.6701 74.8469 72.2897 76.4108 92.7567 57.873C111.294 78.3399 142.914 79.9038 163.381 61.366C183.848 42.8283 185.412 11.2085 166.874 -9.25837C185.412 11.2085 217.032 12.7723 237.498 -5.76535C218.961 -26.2323 187.341 -27.796 166.874 -9.25837C187.341 -27.796 188.905 -59.4158 170.367 -79.8827C151.829 -100.349 120.209 -101.913 99.7427 -83.3757C120.209 -101.913 121.773 -133.533 103.236 -154C82.769 -135.462 81.2051 -103.842 99.7427 -83.3757C81.2051 -103.842 49.5851 -105.406 29.1184 -86.8687C8.65137 -68.3309 7.08771 -36.7112 25.6254 -16.2444C7.08771 -36.7112 -24.532 -38.2753 -44.999 -19.7374C-26.4614 0.729357 5.15836 2.29345 25.6254 -16.2444C5.15836 2.29345 3.59469 33.9132 22.1323 54.38ZM99.7427 -83.3757C79.2759 -64.8381 77.7121 -33.2181 96.2497 -12.7514C116.716 -31.289 118.28 -62.909 99.7427 -83.3757ZM96.2497 -12.7514C77.7121 -33.2181 46.0923 -34.7822 25.6254 -16.2444C46.0923 -34.7822 47.656 -66.402 29.1184 -86.8687C47.656 -66.402 79.2759 -64.8381 99.7427 -83.3757C118.28 -62.909 149.9 -61.3451 170.367 -79.8827C149.9 -61.3451 148.336 -29.7253 166.874 -9.25837C148.336 -29.7253 116.716 -31.289 96.2497 -12.7514ZM96.2497 -12.7514C114.787 7.71553 146.407 9.27928 166.874 -9.25837C146.407 9.27928 144.843 40.8991 163.381 61.366C144.843 40.8991 113.224 39.3351 92.7567 57.873C113.224 39.3351 114.787 7.71553 96.2497 -12.7514ZM96.2497 -12.7514C75.7827 5.78647 44.163 4.22237 25.6254 -16.2444C44.163 4.22237 42.5993 35.8421 22.1323 54.38C42.5993 35.8421 74.2189 37.4061 92.7567 57.873C74.2189 37.4061 75.7827 5.78647 96.2497 -12.7514Z" fill="url(#paint1_linear_908_208)"/>
</g>
</g>
</g>
<defs>
<linearGradient id="paint0_linear_908_208" x1="156.395" y1="202.615" x2="304.63" y2="68.352" gradientUnits="userSpaceOnUse">
<stop stop-color="#FEB65E"/>
<stop offset="1" stop-color="#FFD6A5"/>
</linearGradient>
<linearGradient id="paint1_linear_908_208" x1="22.1323" y1="54.38" x2="170.367" y2="-79.8827" gradientUnits="userSpaceOnUse">
<stop stop-color="#FEB65E"/>
<stop offset="1" stop-color="#FFD6A5"/>
</linearGradient>
<clipPath id="clip0_908_208">
<rect width="185" height="185" fill="white"/>
</clipPath>
<clipPath id="clip1_908_208">
<rect width="200" height="200" fill="white" transform="translate(223.526 276.732) rotate(-132.169)"/>
</clipPath>
<clipPath id="clip2_908_208">
<rect width="200" height="200" fill="white" transform="translate(89.2637 128.497) rotate(-132.169)"/>
</clipPath>
</defs>
</svg>
