<svg width="208" height="252" viewBox="0 0 208 252" fill="none" xmlns="http://www.w3.org/2000/svg">
<g clip-path="url(#clip0_908_143)">
<g clip-path="url(#clip1_908_143)">
<mask id="mask0_908_143" style="mask-type:luminance" maskUnits="userSpaceOnUse" x="89" y="-22" width="283" height="283">
<path d="M89.2637 112.497L223.526 260.732L371.761 126.469L237.498 -21.7653L89.2637 112.497Z" fill="white"/>
</mask>
<g mask="url(#mask0_908_143)">
<path fill-rule="evenodd" clip-rule="evenodd" d="M223.526 260.732C204.989 240.265 206.552 208.646 227.019 190.108C245.557 210.575 243.993 242.194 223.526 260.732ZM156.395 186.615C174.933 207.082 206.552 208.646 227.019 190.108C245.557 210.575 277.177 212.139 297.644 193.601C318.11 175.063 319.674 143.443 301.137 122.976C319.674 143.443 351.294 145.007 371.761 126.469C353.223 106.002 321.603 104.439 301.137 122.976C321.603 104.439 323.168 72.8189 304.63 52.352C286.092 31.8853 254.472 30.3214 234.005 48.859C254.472 30.3214 256.036 -1.29857 237.498 -21.7653C217.032 -3.22769 215.468 28.3922 234.005 48.859C215.468 28.3922 183.848 26.8284 163.381 45.366C142.914 63.9038 141.35 95.5236 159.888 115.99C141.35 95.5236 109.731 93.9595 89.2637 112.497C107.801 132.964 139.421 134.528 159.888 115.99C139.421 134.528 137.857 166.148 156.395 186.615ZM234.005 48.859C213.539 67.3967 211.975 99.0166 230.512 119.483C250.979 100.946 252.543 69.3258 234.005 48.859ZM230.512 119.483C211.975 99.0166 180.355 97.4525 159.888 115.99C180.355 97.4525 181.919 65.8328 163.381 45.366C181.919 65.8328 213.539 67.3967 234.005 48.859C252.543 69.3258 284.163 70.8897 304.63 52.352C284.163 70.8897 282.599 102.509 301.137 122.976C282.599 102.509 250.979 100.946 230.512 119.483ZM230.512 119.483C249.05 139.95 280.67 141.514 301.137 122.976C280.67 141.514 279.106 173.134 297.644 193.601C279.106 173.134 247.486 171.57 227.019 190.108C247.486 171.57 249.05 139.95 230.512 119.483ZM230.512 119.483C210.045 138.021 178.426 136.457 159.888 115.99C178.426 136.457 176.862 168.077 156.395 186.615C176.862 168.077 208.482 169.641 227.019 190.108C208.482 169.641 210.045 138.021 230.512 119.483Z" fill="url(#paint0_linear_908_143)"/>
</g>
</g>
<g clip-path="url(#clip2_908_143)">
<mask id="mask1_908_143" style="mask-type:luminance" maskUnits="userSpaceOnUse" x="-45" y="-170" width="283" height="283">
<path d="M-44.999 -35.7374L89.2636 112.497L237.498 -21.7654L103.236 -170L-44.999 -35.7374Z" fill="white"/>
</mask>
<g mask="url(#mask1_908_143)">
<path fill-rule="evenodd" clip-rule="evenodd" d="M89.2636 112.497C70.7259 92.0304 72.2897 60.4108 92.7567 41.873C111.294 62.3399 109.731 93.9595 89.2636 112.497ZM22.1323 38.38C40.6701 58.8469 72.2897 60.4108 92.7567 41.873C111.294 62.3399 142.914 63.9038 163.381 45.366C183.848 26.8283 185.412 -4.79145 166.874 -25.2584C185.412 -4.79145 217.032 -3.22771 237.498 -21.7654C218.961 -42.2323 187.341 -43.796 166.874 -25.2584C187.341 -43.796 188.905 -75.4158 170.367 -95.8827C151.829 -116.349 120.209 -117.913 99.7427 -99.3757C120.209 -117.913 121.773 -149.533 103.236 -170C82.7689 -151.462 81.205 -119.842 99.7427 -99.3757C81.205 -119.842 49.5851 -121.406 29.1183 -102.869C8.65134 -84.3309 7.08768 -52.7112 25.6253 -32.2444C7.08768 -52.7112 -24.532 -54.2753 -44.999 -35.7374C-26.4614 -15.2706 5.15833 -13.7065 25.6253 -32.2444C5.15833 -13.7065 3.59466 17.9132 22.1323 38.38ZM99.7427 -99.3757C79.2759 -80.8381 77.712 -49.2181 96.2497 -28.7514C116.716 -47.289 118.28 -78.909 99.7427 -99.3757ZM96.2497 -28.7514C77.712 -49.2181 46.0923 -50.7822 25.6253 -32.2444C46.0923 -50.7822 47.656 -82.402 29.1183 -102.869C47.656 -82.402 79.2759 -80.8381 99.7427 -99.3757C118.28 -78.909 149.9 -77.3451 170.367 -95.8827C149.9 -77.3451 148.336 -45.7253 166.874 -25.2584C148.336 -45.7253 116.716 -47.289 96.2497 -28.7514ZM96.2497 -28.7514C114.787 -8.28447 146.407 -6.72072 166.874 -25.2584C146.407 -6.72072 144.843 24.8991 163.381 45.366C144.843 24.8991 113.224 23.3351 92.7567 41.873C113.224 23.3351 114.787 -8.28447 96.2497 -28.7514ZM96.2497 -28.7514C75.7827 -10.2135 44.163 -11.7776 25.6253 -32.2444C44.163 -11.7776 42.5993 19.8421 22.1323 38.38C42.5993 19.8421 74.2189 21.4061 92.7567 41.873C74.2189 21.4061 75.7827 -10.2135 96.2497 -28.7514Z" fill="url(#paint1_linear_908_143)"/>
</g>
</g>
</g>
<defs>
<linearGradient id="paint0_linear_908_143" x1="156.395" y1="186.615" x2="304.63" y2="52.352" gradientUnits="userSpaceOnUse">
<stop stop-color="#FEB65E"/>
<stop offset="1" stop-color="#FFD6A5"/>
</linearGradient>
<linearGradient id="paint1_linear_908_143" x1="22.1323" y1="38.38" x2="170.367" y2="-95.8827" gradientUnits="userSpaceOnUse">
<stop stop-color="#FEB65E"/>
<stop offset="1" stop-color="#FFD6A5"/>
</linearGradient>
<clipPath id="clip0_908_143">
<rect width="268" height="268" fill="white" transform="translate(0 -16)"/>
</clipPath>
<clipPath id="clip1_908_143">
<rect width="200" height="200" fill="white" transform="translate(223.526 260.732) rotate(-132.169)"/>
</clipPath>
<clipPath id="clip2_908_143">
<rect width="200" height="200" fill="white" transform="translate(89.2636 112.497) rotate(-132.169)"/>
</clipPath>
</defs>
</svg>
