<svg width="25" height="24" viewBox="0 0 25 24" fill="none" xmlns="http://www.w3.org/2000/svg">
<g clip-path="url(#clip0_505_1033)">
<path d="M12.5 0C10.1266 0 7.80655 0.703788 5.83316 2.02236C3.85977 3.34094 2.3217 5.21508 1.41345 7.4078C0.505199 9.60051 0.267559 12.0133 0.730582 14.3411C1.1936 16.6689 2.33649 18.807 4.01472 20.4853C5.69295 22.1635 7.83115 23.3064 10.1589 23.7694C12.4867 24.2324 14.8995 23.9948 17.0922 23.0865C19.2849 22.1783 21.1591 20.6402 22.4776 18.6668C23.7962 16.6934 24.5 14.3734 24.5 12C24.4966 8.81843 23.2313 5.76814 20.9816 3.51843C18.7319 1.26872 15.6816 0.00335979 12.5 0ZM13.4231 22.1112V14.7692H16.1923C16.4371 14.7692 16.6719 14.672 16.845 14.4989C17.0181 14.3258 17.1154 14.091 17.1154 13.8462C17.1154 13.6013 17.0181 13.3665 16.845 13.1934C16.6719 13.0203 16.4371 12.9231 16.1923 12.9231H13.4231V10.1538C13.4231 9.66421 13.6176 9.19464 13.9638 8.84842C14.31 8.5022 14.7796 8.30769 15.2692 8.30769H17.1154C17.3602 8.30769 17.595 8.21044 17.7681 8.03733C17.9412 7.86422 18.0385 7.62943 18.0385 7.38461C18.0385 7.1398 17.9412 6.90501 17.7681 6.7319C17.595 6.55879 17.3602 6.46154 17.1154 6.46154H15.2692C14.29 6.46154 13.3508 6.85055 12.6584 7.54299C11.9659 8.23543 11.5769 9.17458 11.5769 10.1538V12.9231H8.8077C8.56288 12.9231 8.32809 13.0203 8.15498 13.1934C7.98187 13.3665 7.88462 13.6013 7.88462 13.8462C7.88462 14.091 7.98187 14.3258 8.15498 14.4989C8.32809 14.672 8.56288 14.7692 8.8077 14.7692H11.5769V22.1112C8.97477 21.8736 6.56435 20.642 4.84705 18.6726C3.12975 16.7032 2.23778 14.1476 2.35668 11.5373C2.47557 8.92706 3.59618 6.4631 5.4854 4.65797C7.37462 2.85284 9.88702 1.84551 12.5 1.84551C15.113 1.84551 17.6254 2.85284 19.5146 4.65797C21.4038 6.4631 22.5244 8.92706 22.6433 11.5373C22.7622 14.1476 21.8703 16.7032 20.153 18.6726C18.4357 20.642 16.0252 21.8736 13.4231 22.1112Z" fill="#FEB65E"/>
</g>
<defs>
<clipPath id="clip0_505_1033">
<rect width="24" height="24" fill="white" transform="translate(0.5)"/>
</clipPath>
</defs>
</svg>
