<svg width="25" height="24" viewBox="0 0 25 24" fill="none" xmlns="http://www.w3.org/2000/svg">
<g clip-path="url(#clip0_505_1030)">
<path d="M24.5 11.9994C24.5001 14.8249 23.5032 17.5599 21.6849 19.7226C19.8665 21.8852 17.3433 23.3369 14.5597 23.8219C11.7761 24.3069 8.91064 23.7941 6.46801 22.3738C4.02539 20.9535 2.16229 18.7168 1.20686 16.0577C0.251424 13.3986 0.264952 10.4876 1.24505 7.83753C2.22516 5.18743 4.10897 2.96817 6.56469 1.57064C9.0204 0.173101 11.8905 -0.313066 14.6695 0.197764C17.4485 0.708594 19.9581 2.18366 21.7563 4.36314C21.8455 4.46359 21.9136 4.581 21.9565 4.70836C21.9994 4.83572 22.0162 4.97041 22.0058 5.1044C21.9955 5.23838 21.9582 5.36891 21.8963 5.48818C21.8344 5.60745 21.7491 5.71302 21.6455 5.79857C21.5418 5.88413 21.422 5.94793 21.2932 5.98614C21.1643 6.02436 21.0291 6.03622 20.8956 6.02101C20.7621 6.00581 20.633 5.96384 20.5161 5.89763C20.3991 5.83141 20.2967 5.74231 20.215 5.63564C18.7442 3.85229 16.701 2.63357 14.433 2.18679C12.165 1.74001 9.81221 2.09278 7.77495 3.18508C5.73769 4.27738 4.14178 6.04175 3.2587 8.17803C2.37562 10.3143 2.25992 12.6906 2.93128 14.9025C3.60265 17.1145 5.01961 19.0255 6.94111 20.3106C8.86261 21.5957 11.17 22.1753 13.4707 21.951C15.7714 21.7267 17.9233 20.7122 19.5604 19.0802C21.1975 17.4482 22.2186 15.2994 22.45 12.9994H12.5C12.2348 12.9994 11.9804 12.894 11.7929 12.7065C11.6054 12.5189 11.5 12.2646 11.5 11.9994C11.5 11.7342 11.6054 11.4798 11.7929 11.2923C11.9804 11.1047 12.2348 10.9994 12.5 10.9994H23.5C23.7652 10.9994 24.0196 11.1047 24.2071 11.2923C24.3946 11.4798 24.5 11.7342 24.5 11.9994Z" fill="#FEB65E"/>
</g>
<defs>
<clipPath id="clip0_505_1030">
<rect width="24" height="24" fill="white" transform="translate(0.5)"/>
</clipPath>
</defs>
</svg>
