<svg width="24" height="24" viewBox="0 0 24 24" fill="none" xmlns="http://www.w3.org/2000/svg">
<g clip-path="url(#clip0_506_1528)">
<path fill-rule="evenodd" clip-rule="evenodd" d="M12.0008 2.1889C11.9877 2.1889 11.9749 2.19264 11.9639 2.19968C11.9529 2.20673 11.9441 2.21678 11.9386 2.22865L11.9292 2.24902L9.20985 7.7383C9.08675 8.00676 8.89696 8.23938 8.65843 8.41392C8.41916 8.58899 8.13903 8.69963 7.84492 8.73538L1.84072 9.62489C1.82105 9.62781 1.80128 9.63004 1.78146 9.63158C1.76823 9.6326 1.75559 9.63744 1.74507 9.6455C1.73454 9.65357 1.72657 9.66451 1.72214 9.67701C1.71771 9.68951 1.71699 9.70302 1.72008 9.71592C1.72317 9.72882 1.72993 9.74054 1.73955 9.74967L1.74457 9.75443L6.12897 13.9847C6.34117 14.1848 6.50055 14.4344 6.5928 14.7111C6.68554 14.9893 6.70752 15.2863 6.65675 15.5751C6.65656 15.5762 6.65637 15.5773 6.65618 15.5784L5.61144 21.6928L5.61098 21.6955C5.60822 21.7113 5.60996 21.7275 5.616 21.7424C5.62203 21.7573 5.63212 21.7701 5.64511 21.7796C5.6581 21.789 5.67347 21.7946 5.68948 21.7957C5.70548 21.7968 5.72148 21.7934 5.73565 21.7859L5.73747 21.7849L11.1546 18.922L11.1774 18.9104C11.4337 18.7846 11.7153 18.7192 12.0008 18.7192C12.2863 18.7192 12.568 18.7846 12.8243 18.9104L12.847 18.922L18.266 21.7859C18.2802 21.7934 18.2962 21.7968 18.3122 21.7957C18.3282 21.7946 18.3436 21.789 18.3565 21.7796C18.3695 21.7701 18.3796 21.7573 18.3857 21.7424C18.3917 21.7275 18.3934 21.7113 18.3907 21.6955L17.3455 15.647C17.3453 15.6462 17.3452 15.6455 17.3451 15.6447C17.2941 15.3556 17.316 15.0582 17.4089 14.7797C17.5004 14.5051 17.6579 14.2574 17.8676 14.0581L22.1971 9.7628L22.2154 9.74525C22.2249 9.73636 22.2316 9.72495 22.2349 9.71236C22.2382 9.69976 22.2378 9.6865 22.2338 9.67411C22.2298 9.66173 22.2224 9.65074 22.2123 9.64242C22.2023 9.63411 22.1902 9.62881 22.1773 9.62715L22.1609 9.62505L16.1567 8.73538C15.8626 8.69963 15.5825 8.58899 15.3432 8.41392C15.1047 8.23938 14.9149 8.00674 14.7918 7.73826L12.0628 2.22877C12.0573 2.2169 12.0488 2.20673 12.0377 2.19968C12.0267 2.19264 12.0139 2.1889 12.0008 2.1889ZM11.0409 0.755071C11.3276 0.571925 11.6607 0.474609 12.0008 0.474609C12.341 0.474609 12.6741 0.571925 12.9607 0.755071C13.2437 0.935876 13.4698 1.19288 13.6131 1.4964L16.3346 6.99084C16.34 7.00164 16.3451 7.01255 16.35 7.02356C16.3512 7.0263 16.3531 7.02867 16.3555 7.03044C16.3579 7.03221 16.3608 7.03331 16.3638 7.03364C16.3742 7.0348 16.3846 7.03615 16.395 7.03769L22.4053 7.9281C22.7373 7.97259 23.0502 8.10973 23.3079 8.32389C23.5681 8.54009 23.7614 8.82586 23.8653 9.14782C23.9691 9.46979 23.9793 9.81466 23.8944 10.1422C23.8109 10.4649 23.6385 10.7576 23.397 10.9872L19.0674 15.2826L19.0488 15.3005C19.0426 15.3063 19.0379 15.3137 19.0352 15.3218C19.0325 15.3299 19.0318 15.3386 19.0333 15.347L19.034 15.351L20.0795 21.4014C20.1371 21.733 20.1007 22.0752 19.9741 22.3871C19.8474 22.6993 19.6356 22.9697 19.3628 23.1675C19.09 23.3653 18.7671 23.4825 18.431 23.5058C18.0955 23.5292 17.7603 23.458 17.4632 23.3005M17.4614 23.2996L12.0623 20.4463C12.0429 20.4379 12.022 20.4335 12.0008 20.4335C11.9797 20.4335 11.9587 20.4379 11.9394 20.4463L6.54028 23.2996C6.53974 23.2999 6.53921 23.3001 6.53867 23.3004C6.24154 23.458 5.9062 23.5292 5.57066 23.5058C5.23452 23.4825 4.91168 23.3653 4.63888 23.1675C4.36608 22.9697 4.15427 22.6993 4.02755 22.3871C3.90102 22.0753 3.86441 21.7344 3.92184 21.4029C3.92176 21.4034 3.92193 21.4024 3.92184 21.4029L4.96736 15.2841L4.96833 15.2785C4.96983 15.27 4.9692 15.2613 4.96648 15.2532C4.96377 15.2451 4.95907 15.2378 4.9528 15.2319L4.94274 15.2225L0.556342 10.9902C0.307827 10.7532 0.133024 10.4494 0.052988 10.1154C-0.0273589 9.78009 -0.00875355 9.42868 0.10655 9.10374C0.221853 8.77879 0.428907 8.49425 0.702631 8.28458C0.96717 8.08195 1.28301 7.95766 1.61422 7.92545L7.60664 7.03769C7.61703 7.03615 7.62745 7.0348 7.63789 7.03364C7.64087 7.03331 7.64371 7.03221 7.64613 7.03044C7.64854 7.02867 7.65046 7.0263 7.65167 7.02356C7.65656 7.01255 7.66168 7.00164 7.66703 6.99084L10.3886 1.4964C10.5318 1.19288 10.7579 0.935876 11.0409 0.755071" fill="#FEAF50"/>
</g>
<defs>
<clipPath id="clip0_506_1528">
<rect width="24" height="24" fill="white"/>
</clipPath>
</defs>
</svg>
